PathFileType	4	(X/Y/Z)	../Python\walking\Walking18\task.trc
DataRate	CameraRate	NumFrames	NumMarkers	Units	OrigDataRate	OrigDataStartFrame	OrigNumFrames
200.000000	200.000000	6	30	mm	200.000000	274	439
Frame#	Time	RBAK			CLAV			STRN			RASI			LASI			PE01			RTH1			RTH2			RTH3			RTB3			RHEE			RD5M			RTOE			LTH2			LTH3			LTB2			LTB3			LHEE			LTOE			LD5M			LTB1			C7			RTB1			RTB2			LPSI			PE03			PE02			RPSI			LTH1			T10			
		X1	Y1	Z1	X2	Y2	Z2	X3	Y3	Z3	X4	Y4	Z4	X5	Y5	Z5	X6	Y6	Z6	X7	Y7	Z7	X8	Y8	Z8	X9	Y9	Z9	X10	Y10	Z10	X11	Y11	Z11	X12	Y12	Z12	X13	Y13	Z13	X14	Y14	Z14	X15	Y15	Z15	X16	Y16	Z16	X17	Y17	Z17	X18	Y18	Z18	X19	Y19	Z19	X20	Y20	Z20	X21	Y21	Z21	X22	Y22	Z22	X23	Y23	Z23	X24	Y24	Z24	X25	Y25	Z25	X26	Y26	Z26	X27	Y27	Z27	X28	Y28	Z28	X29	Y29	Z29	X30	Y30	Z30	

275	1.37	-103.6213302612305	1209.751098632813	247.055145263672	76.62084960937503	1219.847412109375	164.4477996826172	135.7740631103516	1033.89892578125	162.9467773437501	100.8661880493165	842.6831054687505	272.8543090820314	112.3372421264649	839.8560180664067	43.55138778686525	-85.5095138549805	914.3554687500005	171.2475585937501	116.4733200073243	553.0655517578127	302.9141235351564	167.2867889404297	494.2713317871096	285.9438476562501	166.8940887451172	552.9238891601565	304.2799377441407	300.3571166992189	231.2642669677736	272.2422790527345	305.531707763672	21.20038604736329	205.3338623046876	445.731628417969	66.05081176757815	276.7946777343751	470.6085510253909	95.07994079589847	231.9739379882814	-64.13645935058597	545.8621826171877	20.35199356079102	15.34293746948243	558.1020507812502	20.34137725830079	-219.1457519531251	225.0749511718751	38.72249984741212	-172.3049468994141	235.6847991943361	46.76464462280275	-324.4215698242189	68.07519531250003	92.09967803955081	-138.1375427246094	28.39788627624513	118.1146087646485	-176.355453491211	15.2687749862671	63.35463714599612	-182.7701721191407	293.8204956054689	27.87170600891115	-45.86464691162111	1316.79833984375	158.4997253417969	280.6072082519532	307.055389404297	277.6423950195314	256.7237548828126	251.7152709960939	284.8314208984376	-93.48989105224612	882.2411499023442	125.8944473266602	-106.2169494628907	857.4140625000005	141.9425201416016	-105.7113113403321	854.7655639648442	192.7201538085939	-95.63632965087893	874.405883789063	210.4727020263673	-21.47179603576661	590.3200683593752	8.579783439636234	-73.75102996826175	1017.23583984375	150.9077911376954	
276	1.375	-96.43286895751959	1208.622192382813	247.6577606201173	83.8499450683594	1218.820922851563	165.1285552978516	143.1365356445313	1032.959716796875	163.5052795410157	108.3736419677735	842.163452148438	273.3272094726564	119.6993789672852	838.5903930664067	43.91766357421876	-78.15737152099612	913.5690917968755	171.5453796386719	125.3344345092774	553.209655761719	303.3108215332032	176.4764251708985	494.6630554199221	286.3345642089845	175.8087921142579	553.4146118164065	304.2755432128907	306.8444824218751	230.1963653564454	272.0887145996095	308.4298095703126	20.51328849792481	205.5279693603517	449.6419677734377	62.70681381225589	275.7342224121095	474.7992858886721	91.437370300293	230.6392669677736	-57.86732482910159	544.963317871094	20.90907287597657	21.67575454711915	556.847351074219	20.85351371765137	-216.0623168945314	226.1942749023439	38.83494567871095	-169.013656616211	236.1967010498048	46.9187355041504	-323.6335754394532	70.61920166015628	91.80210876464847	-137.9167175292969	28.40944099426271	118.038200378418	-176.3450927734376	15.24659252166749	63.33750915527347	-178.6939086914063	294.4058532714845	28.13488578796388	-38.73196029663087	1315.84423828125	159.239730834961	288.0732421875001	306.2319641113282	277.6430664062501	263.5481262207032	251.1599426269532	284.9458007812501	-86.08867645263675	881.2907714843755	126.3241348266602	-98.82556915283209	856.4570922851567	142.5375518798829	-98.2321395874024	854.0222167968755	193.3200683593751	-88.23515319824222	873.681518554688	210.8983917236329	-15.04299068450928	589.2791748046877	9.1604118347168	-66.43909454345706	1016.262329101563	151.2303314208985	
277	1.38	-89.20020294189456	1207.583251953125	248.291229248047	91.10590362548831	1217.904907226563	165.8111877441407	150.5399017333985	1032.13818359375	164.0682830810547	115.9029083251954	841.7713012695317	273.8315734863282	127.1192245483399	837.3635253906255	44.3395233154297	-70.78819274902347	912.8970336914067	171.7596435546876	134.4380645751954	553.605651855469	303.8118896484376	185.8245239257813	495.2345886230471	286.8175659179689	184.9666748046876	554.1193847656252	304.2555236816407	313.0523681640626	229.1379699707032	271.9528198242189	310.7357177734376	19.98950576782227	205.6946563720704	452.957458496094	59.05261993408206	274.7098388671876	478.513854980469	87.46995544433597	229.3654327392579	-51.44021606445315	544.0413818359377	21.52537536621094	28.14364051818849	555.586364746094	21.47635078430176	-212.8187561035157	227.4015502929689	38.98542404174806	-165.557601928711	236.7770843505861	47.10676193237306	-322.7249145507814	73.36274719238284	91.53609466552737	-137.6711425781251	28.42078781127931	117.9483489990235	-176.3657226562501	15.21628284454346	63.33263778686526	-174.4289550781251	295.0484313964845	28.43740844726564	-31.57498168945314	1314.981323242188	159.9958190917969	295.3728332519532	305.432098388672	277.6788024902345	270.1174316406251	250.6732330322267	285.0541076660157	-78.62025451660159	880.4309692382817	126.6894073486329	-91.37123870849612	855.5879516601567	143.0759887695313	-90.71628570556643	853.3971557617192	193.860565185547	-80.79558563232425	873.0949707031255	211.2826538085939	-8.458485603332523	588.2279052734377	9.800160408020023	-59.08216857910159	1015.384765625	151.5382080078126	
278	1.385	-81.92411804199222	1206.638427734375	248.9551239013673	98.38666534423834	1217.103271484375	166.4935302734376	157.981918334961	1031.437866210938	164.6333618164063	123.4509735107422	841.509399414063	274.3677062988282	134.5908203125001	836.1818237304692	44.8188819885254	-63.40544128417972	912.3405761718755	171.8915405273438	143.7492370605469	554.2438964843752	304.4254760742189	195.2910156250001	495.977478027344	287.3939208984376	194.3291473388673	555.025085449219	304.2335815429689	319.0034790039064	228.1208038330079	271.8524475097657	312.5512695312501	19.66134834289551	205.8482208251954	455.7579345703127	55.17585372924808	273.7642517089845	481.8240966796877	83.26723480224612	228.2000732421876	-44.85060119628908	543.1060791015627	22.20125770568848	34.7499237060547	554.3328857421877	22.20580291748048	-209.4016113281251	228.7088928222657	39.18421173095705	-161.9237518310547	237.433319091797	47.33050537109376	-321.6674194335939	76.326042175293	91.32424926757815	-137.4084472656251	28.42766571044923	117.845085144043	-176.4258880615235	15.1836109161377	63.34693527221683	-169.9642333984376	295.7593078613282	28.78526687622072	-24.39523124694826	1314.212890625	160.7668151855469	302.5054626464845	304.6749267578126	277.7592773437501	276.4518432617189	250.2750854492189	285.1737670898439	-71.08850860595706	879.6640625000005	126.9914169311524	-83.85742950439456	854.8091430664067	143.5578918457032	-83.16790008544925	852.891967773438	194.3415985107423	-73.32037353515628	872.648315429688	211.627410888672	-1.714709639549256	587.1744384765627	10.4957857131958	-51.68336868286136	1014.607238769532	151.8328094482422	
279	1.39	-74.60555267333987	1205.791625976563	249.6489105224611	105.690040588379	1216.419677734375	167.1732482910157	165.4598541259766	1030.861083984375	165.1978759765626	131.0144958496094	841.3793945312505	274.9352111816407	142.1073760986329	835.0521850585942	45.35677337646486	-56.01271438598636	911.900024414063	171.9436950683594	153.226058959961	555.1105957031252	305.1560974121095	204.8356933593751	496.8847351074221	288.0627746582032	203.8508758544923	556.117858886719	304.2240600585939	324.7202453613282	227.1725921630861	271.8028259277345	313.9742126464845	19.54638862609864	206.0020446777345	458.1206359863284	51.16976547241214	272.9361267089845	484.7931213378909	78.92200469970706	227.183074951172	-38.09148406982423	542.1667480468752	22.93624877929688	41.50182723999025	553.1014404296877	23.03321838378907	-205.7945251464845	230.1281738281251	39.44139480590822	-158.0970153808594	238.1724090576173	47.59058380126955	-320.4277648925782	79.52915191650393	91.19058227539065	-137.1392974853516	28.42504310607912	117.7294006347657	-176.5323638916016	15.15738201141358	63.38794708251956	-165.2869262695313	296.5493774414064	29.18399047851564	-17.19433212280274	1313.542358398438	161.5514221191407	309.4714355468751	303.9768371582032	277.891815185547	282.5737609863282	249.9823455810548	285.324188232422	-63.49821472167972	878.991821289063	127.2324600219727	-76.288444519043	854.1227416992192	143.9843902587891	-75.59159088134768	852.5075073242192	194.7640991210939	-65.81262969970706	872.342407226563	211.9354095458986	5.193311214447023	586.1267700195315	11.24292945861817	-44.24627685546876	1013.933227539063	152.1159667968751	
280	1.395	-67.2455978393555	1205.046142578125	250.3719787597657	113.0136947631837	1215.856567382813	167.8478546142579	172.9706115722657	1030.409545898438	165.7589569091797	138.5898590087891	841.3818359375005	275.533172607422	149.6614379882813	833.9817504882817	45.95331954956056	-48.61364364624026	911.5747680664067	171.9201354980469	162.8205718994141	556.186950683594	306.0044555664064	214.418670654297	497.949645996094	288.8216247558595	213.4807739257814	557.382507324219	304.2422485351564	330.223602294922	226.3150634765626	271.8155212402345	315.0939025878907	19.64647674560548	206.1677551269532	460.1168212890627	47.12867736816408	272.2580871582032	487.4727172851565	74.52618408203128	226.3441009521486	-31.15319824218751	541.2310180664065	23.72880554199219	48.41085433959964	551.906433105469	23.94519615173341	-201.9782257080079	231.6702575683595	39.76648712158205	-154.0601501464844	239.0006866455079	47.88632583618165	-318.967987060547	82.99101257324222	91.15969848632815	-136.8773498535157	28.40745925903322	117.6034011840821	-176.6890716552735	15.14982509613038	63.46363830566409	-160.382308959961	297.4288024902345	29.63831138610841	-9.97399997711182	1312.972290039063	162.3482360839844	316.2711791992189	303.3502502441407	278.0808410644532	288.5061340332032	249.8069305419923	285.5254211425782	-55.85500717163089	878.4155883789067	127.4159698486329	-68.66938781738284	853.5302124023442	144.3575897216797	-67.99231719970706	852.2434082031255	195.1301422119142	-58.27581024169925	872.1771850585942	212.2102355957032	12.27197360992432	585.0924072265627	12.03615379333497	-36.77490615844728	1013.365600585938	152.3899230957032	
